<svg width="51" height="51" viewBox="0 0 51 51" fill="none" xmlns="http://www.w3.org/2000/svg">
<path fill-rule="evenodd" clip-rule="evenodd" d="M36.8124 32.2476L50.2624 45.6976C50.7352 46.1707 51.0006 46.8122 51.0004 47.481C51.0001 48.1498 50.7342 48.7911 50.2612 49.2638C49.7881 49.7366 49.1466 50.002 48.4778 50.0018C47.809 50.0016 47.1677 49.7357 46.6949 49.2626L33.2449 35.8126C29.2242 38.9268 24.1681 40.3923 19.1052 39.911C14.0423 39.4297 9.35299 37.0377 5.99111 33.2216C2.62924 29.4056 0.847384 24.4521 1.00804 19.369C1.16869 14.2858 3.25978 9.45474 6.85592 5.85861C10.4521 2.26247 15.2831 0.171377 20.3663 0.0107232C25.4494 -0.14993 30.4029 1.63192 34.2189 4.9938C38.035 8.35567 40.427 13.045 40.9083 18.1079C41.3896 23.1708 39.9241 28.2269 36.8099 32.2476H36.8124ZM20.9999 35.0001C24.9782 35.0001 28.7935 33.4197 31.6065 30.6067C34.4196 27.7936 35.9999 23.9783 35.9999 20.0001C35.9999 16.0218 34.4196 12.2065 31.6065 9.39349C28.7935 6.58045 24.9782 5.00009 20.9999 5.00009C17.0217 5.00009 13.2064 6.58045 10.3933 9.39349C7.58026 12.2065 5.99991 16.0218 5.99991 20.0001C5.99991 23.9783 7.58026 27.7936 10.3933 30.6067C13.2064 33.4197 17.0217 35.0001 20.9999 35.0001Z" fill="white"/>
<path d="M23.5 22.5H28.5C29.163 22.5 29.7989 22.2366 30.2678 21.7678C30.7366 21.2989 31 20.663 31 20C31 19.337 30.7366 18.7011 30.2678 18.2322C29.7989 17.7634 29.163 17.5 28.5 17.5H23.5V12.5C23.5 11.837 23.2366 11.2011 22.7678 10.7322C22.2989 10.2634 21.663 10 21 10C20.337 10 19.7011 10.2634 19.2322 10.7322C18.7634 11.2011 18.5 11.837 18.5 12.5V17.5H13.5C12.837 17.5 12.2011 17.7634 11.7322 18.2322C11.2634 18.7011 11 19.337 11 20C11 20.663 11.2634 21.2989 11.7322 21.7678C12.2011 22.2366 12.837 22.5 13.5 22.5H18.5V27.5C18.5 28.163 18.7634 28.7989 19.2322 29.2678C19.7011 29.7366 20.337 30 21 30C21.663 30 22.2989 29.7366 22.7678 29.2678C23.2366 28.7989 23.5 28.163 23.5 27.5V22.5Z" fill="#D5621D"/>
</svg>
